<svg xmlns="http://www.w3.org/2000/svg" xmlns:xlink="http://www.w3.org/1999/xlink" id="Layer_1" x="0px" y="0px" viewBox="0 0 512 512" style="enable-background:new 0 0 512 512;" xml:space="preserve"><g>	<g>		<circle cx="140.4" cy="363.4" r="8.3"></circle>		<circle cx="305.5" cy="66.1" r="8.3"></circle>		<ellipse transform="matrix(0.9993 -3.837649e-02 3.837649e-02 0.9993 -18.6554 2.5773)" cx="57.8" cy="487.2" rx="8.3" ry="8.3"></ellipse>		<path d="M330.3,264.3h66.1V512h-66.1V264.3z"></path>		<path d="M214.7,264.3h99.1v82.6h-99.1V264.3z"></path>		<path d="M412.9,264.3H512v82.6h-99.1V264.3z"></path>		<path d="M412.9,363.4H512V512h-99.1V363.4z"></path>		<path d="M214.7,363.4h99.1V512h-99.1V363.4z"></path>		<path d="M238,212.8c-5.8,10.7-8,22.9-6.4,34.9h82.2v-16.5c0-2.7,0.7-5.3,1.9-7.6l-44.8-23.5C258.3,195.1,244,200.7,238,212.8   L238,212.8z"></path>		<path d="M422.9,194.9c6-13.7,0.8-29.1-15.9-38.3c-13.7-6.2-28.7-8.9-43.6-7.9c-15-1-29.9,1.8-43.6,7.9   c-16.7,9.3-21.9,24.6-15.9,38.3l3,5.4l16.5,8.6c1.3,0.7,2.5,1.6,3.5,2.6c21.3-17,51.5-17,72.9,0c1.1-1,2.3-1.9,3.5-2.6l16.5-8.6   L422.9,194.9z"></path>		<path d="M412.9,247.7h82.2c1.6-12-0.7-24.2-6.4-34.9c-6-12.2-20.3-17.7-32.9-12.7L411,223.6c1.2,2.4,1.9,5,1.9,7.6L412.9,247.7z"></path>		<path d="M330.3,231.2v16.5h66.1v-16.5c-14.6-18.2-41.2-21.2-59.5-6.6C334.5,226.6,332.3,228.8,330.3,231.2z"></path>		<path d="M470.7,33c4.6,0,8.3-3.7,8.3-8.3v-8.3c0-4.6-3.7-8.3-8.3-8.3c-4.6,0-8.3,3.7-8.3,8.3v8.3C462.5,29.3,466.1,33,470.7,33z"></path>		<path d="M470.7,49.5c-4.6,0-8.3,3.7-8.3,8.3v8.3c0,4.6,3.7,8.3,8.3,8.3c4.6,0,8.3-3.7,8.3-8.3v-8.3   C479,53.2,475.3,49.5,470.7,49.5z"></path>		<path d="M445.9,49.5h8.3c4.6,0,8.3-3.7,8.3-8.3s-3.7-8.3-8.3-8.3h-8.3c-4.6,0-8.3,3.7-8.3,8.3S441.4,49.5,445.9,49.5z"></path>		<path d="M487.2,49.5h8.3c4.6,0,8.3-3.7,8.3-8.3S500,33,495.5,33h-8.3c-4.6,0-8.3,3.7-8.3,8.3S482.7,49.5,487.2,49.5L487.2,49.5z"></path>		<path d="M33,305.5c4.6,0,8.3-3.7,8.3-8.3V289c0-4.6-3.7-8.3-8.3-8.3s-8.3,3.7-8.3,8.3v8.3C24.8,301.9,28.5,305.5,33,305.5z"></path>		<path d="M33,322.1c-4.6,0-8.3,3.7-8.3,8.3v8.3c0,4.6,3.7,8.3,8.3,8.3s8.3-3.7,8.3-8.3v-8.3C41.3,325.8,37.6,322.1,33,322.1z"></path>		<path d="M16.5,305.5H8.3c-4.6,0-8.3,3.7-8.3,8.3c0,4.6,3.7,8.3,8.3,8.3h8.3c4.6,0,8.3-3.7,8.3-8.3   C24.8,309.2,21.1,305.5,16.5,305.5z"></path>		<path d="M57.8,305.5h-8.3c-4.6,0-8.3,3.7-8.3,8.3c0,4.6,3.7,8.3,8.3,8.3h8.3c4.6,0,8.3-3.7,8.3-8.3   C66.1,309.2,62.4,305.5,57.8,305.5z"></path>		<path d="M214,139.9c-34,33.8-88.9,33.7-122.7-0.3S57.6,50.7,91.6,16.9c7-7,15.1-12.7,24-16.9C51.8,0,0,51.8,0,115.6   s51.8,115.6,115.6,115.6s115.6-51.8,115.6-115.6C226.9,124.6,221.1,132.9,214,139.9z"></path>		<path d="M156.9,16.5l15.3,32.6l34.2,5.2l-24.8,25.4l5.8,35.9l-30.6-16.9l-30.6,16.9l5.8-35.9l-24.8-25.4l34.2-5.2L156.9,16.5z"></path>	</g></g></svg>