<svg xmlns="http://www.w3.org/2000/svg" id="Layer_1" height="512" viewBox="0 0 512 512" width="512"><g><path d="m241 288.677c-41.57 7.144-73.301 43.444-73.301 87.021 0 48.69 39.611 88.302 88.301 88.302s88.302-39.612 88.302-88.301c0-43.577-31.732-79.877-73.302-87.021v44.321c0 .093-.012.183-.014.275 17.466 6.188 30.014 22.864 30.014 42.424 0 24.813-20.187 45-45 45s-45-20.187-45-45c0-19.56 12.548-36.236 30.014-42.424-.002-.093-.014-.182-.014-.275z"></path><circle cx="256" cy="375.698" r="15"></circle><path d="m485.661 367.837c-23.693-38.499-56.951-70.693-96.177-93.104-36.138-20.646-76.818-32.59-118.484-34.91v18.521c58.176 7.394 103.302 57.203 103.302 117.354 0 65.232-53.071 118.302-118.302 118.302s-118.301-53.07-118.301-118.301c0-60.151 45.126-109.961 103.301-117.354v-18.521c-41.667 2.32-82.347 14.265-118.484 34.91-39.226 22.41-72.483 54.604-96.177 93.104-2.967 4.821-2.967 10.902 0 15.724 23.694 38.498 56.952 70.693 96.177 93.103 40.463 23.116 86.622 35.335 133.484 35.335s93.021-12.219 133.484-35.336c39.226-22.41 72.483-54.604 96.177-93.103 2.968-4.822 2.968-10.903 0-15.724z"></path><path d="m271 239.823v-41.569h-30v41.569c4.988-.278 9.99-.426 15-.426s10.012.148 15 .426z"></path><path d="m219 137.999c-2.714 0-5.381-.198-8-.549v15.805c0 8.284 6.716 15 15 15h60c8.284 0 15-6.716 15-15v-15.805c-2.619.351-5.286.549-8 .549z"></path><path d="m219 107.999h74c16.569 0 30-13.431 30-30v-62.999c0-5.692-3.235-11.05-8.689-13.617-2.046-.963-4.306-1.383-6.568-1.383l-103.743.001c-8.284 0-15 6.716-15 15v62.997c0 16.569 13.431 30.001 30 30.001z"></path></g></svg>