<svg xmlns="http://www.w3.org/2000/svg" xmlns:xlink="http://www.w3.org/1999/xlink" id="Capa_1" x="0px" y="0px" viewBox="0 0 512 512" style="enable-background:new 0 0 512 512;" xml:space="preserve"><g id="surface1">	<path d="M328.8,150.6c-27.7,6.4-49.6,28.3-56,56C300.5,200.2,322.3,178.4,328.8,150.6z"></path>	<path d="M182.9,270.4c6.4,27.7,28.3,49.6,56,56C232.5,298.7,210.6,276.8,182.9,270.4z"></path>	<path d="M182.9,150.6c6.4,27.7,28.3,49.6,56,56C232.5,178.9,210.6,157.1,182.9,150.6z"></path>	<path d="M447.7,82.7c17.8-23.1,17.8-44.2,17.8-68.4V14c0-8.3-6.7-15-15-15h-1.1c-23.1,0-43.3,0-65.9,16.5  C345.2,4.9,300.6-0.9,256.8-1C212.4-1.1,167,4.8,128.2,15.5C105.7-1,85.4-1,62.3-1h-1.1c-8.3,0-15,6.7-15,15v0.3  c0,24.2,0,45.3,17.8,68.4C48.9,149.7,42.2,207.5,43,264c0.6,50.4,7.1,100.7,21,162.3c-17.8,23.1-17.8,44.2-17.8,68.4v0.3  c0,8.3,6.7,15,15,15h1.1c23.1,0,43.4,0,66-16.6C167,504.1,211.9,510,256,510c0.3,0,0.6,0,0.9,0c43.6-0.1,88.1-5.9,126.5-16.6  c22.6,16.6,42.8,16.6,66,16.6h1.1c8.3,0,15-6.7,15-15v-0.3c0-24.2,0-45.3-17.8-68.4c13.8-61.2,20.3-111.1,21-161  C469.5,208.4,462.8,150.2,447.7,82.7z M345.6,238.5c8.3,0,15,6.7,15,15c0,52.7-39.1,96.4-89.8,103.7v47c0,8.3-6.7,15-15,15  c-8.3,0-15-6.7-15-15v-47c-50.7-7.3-89.8-51-89.8-103.7c0-8.3,6.7-15,15-15c29.3,0,55.8,12.1,74.8,31.5v-32.6  c-50.7-7.3-89.8-51-89.8-103.7c0-8.3,6.7-15,15-15c29.3,0,55.8,12.1,74.8,31.5v-16.6c0-8.3,6.7-15,15-15c8.3,0,15,6.7,15,15v16.6  c19-19.4,45.6-31.5,74.9-31.5c8.3,0,15,6.7,15,15c0,52.7-39.1,96.4-89.8,103.7v32.6C289.8,250.6,316.3,238.5,345.6,238.5z"></path>	<path d="M328.8,270.4c-27.7,6.4-49.6,28.3-56,56C300.5,320,322.3,298.1,328.8,270.4z"></path></g></svg>