<svg xmlns="http://www.w3.org/2000/svg" height="511pt" viewBox="-42 1 511 511.99899" width="511pt"><g id="surface1"><path d="M 286.894531 151.925781 C 259.105469 158.359375 237.183594 180.285156 230.746094 208.074219 C 258.539062 201.640625 280.460938 179.71875 286.894531 151.925781 Z M 286.894531 151.925781 " style=" stroke:none;fill-rule:nonzero;fill:rgb(0%,0%,0%);fill-opacity:1;"></path><path d="M 140.746094 271.925781 C 147.183594 299.71875 169.105469 321.640625 196.894531 328.074219 C 190.460938 300.28125 168.539062 278.359375 140.746094 271.925781 Z M 140.746094 271.925781 " style=" stroke:none;fill-rule:nonzero;fill:rgb(0%,0%,0%);fill-opacity:1;"></path><path d="M 140.746094 151.925781 C 147.183594 179.71875 169.105469 201.640625 196.894531 208.074219 C 190.460938 180.285156 168.539062 158.359375 140.746094 151.925781 Z M 140.746094 151.925781 " style=" stroke:none;fill-rule:nonzero;fill:rgb(0%,0%,0%);fill-opacity:1;"></path><path d="M 406.035156 83.828125 C 423.824219 60.675781 423.820312 39.507812 423.820312 15.304688 L 423.820312 15 C 423.820312 6.71875 417.105469 0 408.820312 0 L 407.683594 0 C 384.546875 -0.00390625 364.261719 -0.0078125 341.65625 16.570312 C 303.332031 5.9375 258.652344 0.078125 214.847656 0 C 170.277344 -0.0742188 124.867188 5.785156 85.992188 16.570312 C 63.382812 -0.0078125 43.078125 0.0117188 19.957031 0 L 18.820312 0 C 10.539062 0 3.820312 6.714844 3.820312 15 L 3.820312 15.304688 C 3.820312 39.507812 3.820312 60.671875 21.609375 83.828125 C 6.527344 151.03125 -0.175781 208.941406 0.554688 265.511719 C 1.203125 316.015625 7.714844 366.457031 21.609375 428.171875 C 3.820312 451.324219 3.820312 472.492188 3.820312 496.695312 L 3.820312 497 C 3.820312 505.28125 10.539062 511.996094 18.820312 511.996094 L 19.941406 511.996094 C 43.125 512 63.40625 512.007812 86.023438 495.402344 C 124.777344 506.132812 169.839844 512 213.980469 512 C 214.269531 512 214.558594 512 214.847656 511.996094 C 258.492188 511.921875 303.164062 506.054688 341.617188 495.402344 C 364.238281 512.007812 384.550781 511.992188 407.703125 511.996094 L 408.820312 511.996094 C 417.105469 511.996094 423.820312 505.28125 423.820312 497 L 423.820312 496.695312 C 423.820312 472.492188 423.820312 451.324219 406.035156 428.171875 C 419.839844 366.851562 426.351562 316.820312 427.085938 266.847656 C 427.921875 209.839844 421.222656 151.5 406.035156 83.828125 Z M 303.820312 240 C 312.105469 240 318.820312 246.714844 318.820312 255 C 318.820312 307.804688 279.636719 351.621094 228.820312 358.921875 L 228.820312 406 C 228.820312 414.285156 222.105469 421 213.820312 421 C 205.539062 421 198.820312 414.285156 198.820312 406 L 198.820312 358.921875 C 148.003906 351.621094 108.824219 307.804688 108.824219 255 C 108.824219 246.714844 115.539062 240 123.824219 240 C 153.175781 240 179.75 252.113281 198.820312 271.597656 L 198.820312 238.925781 C 148.003906 231.625 108.824219 187.804688 108.824219 135 C 108.824219 126.714844 115.539062 120 123.824219 120 C 153.175781 120 179.75 132.113281 198.820312 151.597656 L 198.820312 135 C 198.820312 126.714844 205.539062 120 213.820312 120 C 222.105469 120 228.820312 126.714844 228.820312 135 L 228.820312 151.597656 C 247.894531 132.113281 274.46875 120 303.820312 120 C 312.105469 120 318.820312 126.714844 318.820312 135 C 318.820312 187.804688 279.636719 231.625 228.820312 238.925781 L 228.820312 271.597656 C 247.894531 252.113281 274.46875 240 303.820312 240 Z M 303.820312 240 " style=" stroke:none;fill-rule:nonzero;fill:rgb(0%,0%,0%);fill-opacity:1;"></path><path d="M 286.894531 271.925781 C 259.105469 278.359375 237.183594 300.28125 230.746094 328.074219 C 258.539062 321.640625 280.460938 299.71875 286.894531 271.925781 Z M 286.894531 271.925781 " style=" stroke:none;fill-rule:nonzero;fill:rgb(0%,0%,0%);fill-opacity:1;"></path></g></svg>