<svg xmlns="http://www.w3.org/2000/svg" height="512" viewBox="0 0 48 48" width="512"><g id="Sahoor"><path d="m16.88 30.12a1 1 0 0 1 1-1.12h.56a5 5 0 0 1 2.87-2.7 5 5 0 0 1 2.78-2.91v-.43c-3.51-.29-3.72-2-7.12-2a6.77 6.77 0 0 0 -3.55.89 9.37 9.37 0 0 1 -8.89 0 6.8 6.8 0 0 0 -2.82-.85l2.29 26h18l.38-4.36a17.82 17.82 0 0 1 -5.26-10.55z"></path><path d="m9 21c3.63 0 3.77-2 8-2 4 0 4.34 1.77 7.28 2 .1 0 0 .2.72-8h-24l.53 6c3.31 0 4.02 2 7.47 2z"></path><path d="m46.21 12.47a8 8 0 0 1 -7.92-11.47 8 8 0 0 0 -7.29 8c0 8.48 11.54 11.1 15.21 3.47z"></path><path d="m28 47h10a2 2 0 0 0 2-2h-14a2 2 0 0 0 2 2z"></path><path d="m19 31c.62 5 2.66 9.11 7 12h14c4.34-2.89 6.38-7 7-12z"></path><path d="m23 28a2.94 2.94 0 0 0 -2.23 1h24.46a2.94 2.94 0 0 0 -2.23-1 3 3 0 0 0 -3.18-3 3 3 0 0 0 -4.29-1.62 3 3 0 0 0 -5.06 0 3 3 0 0 0 -4.29 1.62 3 3 0 0 0 -3.18 3z"></path></g></svg>