<svg xmlns="http://www.w3.org/2000/svg" xmlns:xlink="http://www.w3.org/1999/xlink" id="Capa_1" x="0px" y="0px" viewBox="0 0 512 512" style="enable-background:new 0 0 512 512;" xml:space="preserve"><g>	<path d="M28.4,422.6h455.1V512H28.4L28.4,422.6z"></path>	<path d="M217.8,100.4c8,7.2,20.2,6.9,27.8-0.7L280.3,65h-27.1L217.8,100.4z"></path>	<path d="M294.4,99.7l21.3-21.3L305.1,65h-1.8l-36,36C275.3,107.6,287,107,294.4,99.7L294.4,99.7z"></path>	<path d="M426.7,32.5L381,6.4C373.7,2.2,365.3,0,356.8,0H250.4c-12.9,0-25.3,5.1-34.5,14.3l-58.9,58.9c-9,9-9,23.5,0,32.5  c9,9,23.5,9,32.5,0l56.9-56.9h66.4L336.3,78c5.2,6.5,4.7,15.8-1.2,21.6l-38.5,38.5h-52.8c-11.2,0-20.3,9.1-20.3,20.3  s9.1,20.3,20.3,20.3h113c8.5,0,16.8-2.2,24.2-6.4l45.6-26.1h56.9V32.5H426.7z"></path>	<path d="M418.5,300.7h-87.6c-26.9,41.4-82.2,53.1-123.6,26.2c-10.5-6.8-19.4-15.7-26.2-26.2H93.5L33.1,406.3h445.8L418.5,300.7z   M337.3,373.8H174.7c-4.5,0-8.1-3.6-8.1-8.1s3.6-8.1,8.1-8.1h162.5c4.5,0,8.1,3.6,8.1,8.1C345.4,370.2,341.8,373.8,337.3,373.8z"></path></g><path d="M307.7,200.2c-1.9-1.8-3.9-3.6-6-5.2h-57.9c-8,0-15.7-2.7-22-7.6c-6.4,3.3-12.3,7.6-17.5,12.8c-28.6,28.6-28.6,74.9,0,103.4 c28.6,28.6,74.9,28.6,103.4,0C336.3,275.1,336.3,228.8,307.7,200.2z M285.6,294.4h-56.2l-2.8-9.9c3.4-2.8,5.9-5.7,7.5-8.8 c1.6-3.1,2.4-7,2.6-11.5h-11.2v-13.9h8.4c-1.3-4.6-1.9-9-1.9-13.2c0-4.9,1.1-9.1,3.3-12.6c2.2-3.5,5.3-6.2,9.3-8.1s8.5-2.8,13.6-2.8 c8.4,0,14.9,2.3,19.5,6.8c4.6,4.6,7.2,10.5,7.6,17.8h-19.2c-0.4-5.1-2.8-7.7-7.3-7.7c-2.4,0-4.2,0.7-5.4,2.2 c-1.2,1.5-1.8,3.7-1.8,6.6c0,1.4,0.2,2.9,0.5,4.4c0.3,1.6,1,3.7,1.8,6.6h18.5v13.9h-16.2c-0.2,2.5-0.9,5-1.9,7.5 c-1,2.5-2.7,4.7-4.9,6.6h36.1V294.4z"></path></svg>