<svg xmlns="http://www.w3.org/2000/svg" id="Expand" viewBox="0 0 128 128"><path d="m64.16 9c6.23 0 12.93-2.39 16.64-3.92v4.21c-4.1 2.6-10.29 4.13-16.8 4.13s-12.7-1.53-16.8-4.13v-4.24c3.8 1.52 10.68 3.95 16.96 3.95zm-47.95 93.8h8.94v4.13h-8.94zm78.43 16.31v4.89h-61.28v-4.94zm17.15-12.14h-8.94v-4.13s8.7 0 8.94 0zm9.51-49-6.12 37.35a4.15 4.15 0 0 1 -4.11 3.5h-8.22v-63.15a2 2 0 1 0 -4 0v73.82a5.58 5.58 0 0 1 -5.57 5.57h-58.56a5.58 5.58 0 0 1 -5.57-5.57v-73.82a2 2 0 0 0 -4 0v63.12h-8.22a4.15 4.15 0 0 1 -4.11-3.5l-6.12-37.35c6.35-15.07 18.14-39 23.48-40.83s10.26-3.32 14.66-4.57c4.79 3.11 11.7 4.88 19.16 4.88s14.37-1.77 19.16-4.88c4.4 1.26 9.33 2.79 14.66 4.57 5.34 1.79 17.18 25.76 23.48 40.83z"></path></svg>