<svg xmlns="http://www.w3.org/2000/svg" height="512pt" viewBox="-18 0 512 512" width="512pt"><path d="m257.808594 395.96875h-69.886719c-8.726563 0-15.742187-7.28125-15.320313-16.09375.394532-8.242188 7.5-14.585938 15.753907-14.585938h79.007812c19.121094-41.539062 60.324219-70.886718 108.480469-72.914062v-277.035156c0-8.472656-6.867188-15.339844-15.339844-15.339844h-345.164062c-8.472656 0-15.339844 6.867188-15.339844 15.339844v442.234375c0 8.472656 6.867188 15.339843 15.339844 15.339843h253.566406c-11.980469-24.183593-15.574219-51.207031-11.097656-76.945312zm-69.886719-304.09375h133.324219c8.464844 0 15.339844 6.863281 15.339844 15.339844 0 8.46875-6.875 15.339844-15.339844 15.339844h-133.324219c-8.476563 0-15.339844-6.871094-15.339844-15.339844 0-8.476563 6.863281-15.339844 15.339844-15.339844zm-36.015625 260.5-56.71875 56.707031c-6.003906 6.023438-15.742188 5.964844-21.691406 0l-24.765625-24.769531c-5.992188-5.992188-5.992188-15.707031 0-21.703125 5.980469-5.980469 15.695312-5.980469 21.6875 0l13.929687 13.929687c25.859375-25.859374 14.417969-14.417968 45.867188-45.863281 5.980468-5.996093 15.695312-5.996093 21.691406 0 5.992188 5.992188 5.992188 15.707031 0 21.699219zm0-136.707031-56.71875 56.703125c-5.972656 5.996094-15.683594 6.007812-21.691406 0l-24.765625-24.765625c-5.992188-5.996094-5.992188-15.710938 0-21.691407 5.980469-5.992187 15.695312-5.992187 21.6875 0 5.96875 5.964844 2.925781 2.925782 13.929687 13.917969 7.300782-7.300781 41.050782-41.050781 45.867188-45.867187 5.980468-5.980469 15.695312-5.980469 21.691406 0 5.992188 5.992187 5.992188 15.710937 0 21.703125zm0-136.710938-56.71875 56.707031c-5.972656 5.992188-15.683594 6.003907-21.691406 0l-24.765625-24.769531c-5.992188-5.992187-5.992188-15.707031 0-21.6875 5.980469-5.992187 15.695312-5.992187 21.6875 0 7.0625 7.0625 6.671875 6.667969 13.929687 13.925781l45.867188-45.863281c5.980468-5.992187 15.695312-5.992187 21.691406 0 5.992188 5.980469 5.992188 15.695313 0 21.6875zm36.015625 149.625h133.324219c8.464844 0 15.339844 6.863281 15.339844 15.339844 0 8.46875-6.875 15.339844-15.339844 15.339844h-133.324219c-8.476563 0-15.339844-6.871094-15.339844-15.339844 0-8.476563 6.863281-15.339844 15.339844-15.339844zm0 0"></path><path d="m381.164062 322.941406c-51.945312 0-94.527343 42.226563-94.527343 94.535156 0 52.015626 42.3125 94.523438 94.527343 94.523438 52.121094 0 94.53125-42.398438 94.53125-94.523438 0-52.121093-42.402343-94.535156-94.53125-94.535156zm-5.320312 142.261719c-7.308594 7.308594-16.796875 6.183594-22.335938.644531l-41.4375-41.4375c-5.992187-5.984375-5.992187-15.699218 0-21.691406 5.996094-5.992188 15.699219-5.992188 21.691407 0 7.742187 7.746094 1.703125 1.703125 30.597656 30.589844 44.050781-44.050782 24.90625-24.917969 64.203125-64.214844 5.992188-5.980469 15.707031-5.980469 21.699219 0 5.992187 5.992188 5.992187 15.710938 0 21.703125-52.300781 52.289063-35.640625 35.628906-74.417969 74.40625zm0 0"></path></svg>