<svg xmlns="http://www.w3.org/2000/svg" id="Capa_1" height="512" viewBox="0 0 512 512" width="512"><g><path d="m452.587 105c11.438 0 18.663-12.312 13.12-22.28l-50-75c-2.65-4.77-7.67-7.72-13.12-7.72h-293.7c-5.45 0-10.47 2.95-13.11 7.72l-50 75c-5.538 9.959 1.663 22.28 13.11 22.28z"></path><path d="m441.877 366.8h-372.28c-8.28 0-15 6.71-15 15 0 8.28 6.72 15 15 15h13.75v100.2c0 8.28 6.72 15 15 15h314.78c8.28 0 15-6.72 15-15v-100.2h13.75c8.29 0 15-6.72 15-15 0-8.29-6.71-15-15-15z"></path><path d="m418.307 160h-10.18v-25h-30v25h-244.78v-25h-30v201.8h30v-146.8h107.392v33.465c-26.742 6.717-46.602 30.957-46.602 59.755 0 12.032-1.065.124 5.55 53.58h112.1c6.584-53.208 5.56-41.79 5.56-53.58 0-28.796-19.865-53.036-46.608-59.754v-33.466h107.388v146.8h30v-146.8h10.18c10.93 0 19.82 8.89 19.82 19.81v39.77c0 8.28 6.71 15 15 15 8.28 0 15-6.72 15-15v-39.77c0-27.46-22.35-49.81-49.82-49.81zm-131.8 116h-61.54c3.268-13.95 15.813-24.375 30.739-24.389.011 0 .022.002.033.002s.021-.002.031-.002c14.935.015 27.469 10.439 30.737 24.389z"></path></g></svg>