<svg xmlns="http://www.w3.org/2000/svg" height="512pt" viewBox="0 0 512 512" width="512pt"><path d="m90 242h240v-242h-225c-57.898438 0-105 47.101562-105 105v177.722656c22.007812-24.953125 54.195312-40.722656 90-40.722656zm0 0"></path><path d="m420 .804688v271.195312h-330c-41.90625 0-77.21875 28.792969-87.1875 67.636719 21.890625-23.160157 52.878906-37.636719 87.1875-37.636719h332c35.804688 0 67.992188 15.769531 90 40.722656v-237.722656c0-53.496094-40.214844-97.773438-92-104.195312zm0 0"></path><path d="m360 0h30v242h-30zm0 0"></path><path d="m422 407h-332c-8.269531 0-15 6.730469-15 15s6.730469 15 15 15h332c8.269531 0 15-6.730469 15-15s-6.730469-15-15-15zm0 0"></path><path d="m422 332h-332c-49.625 0-90 40.375-90 90s40.375 90 90 90h332c49.625 0 90-40.375 90-90s-40.375-90-90-90zm0 135h-332c-24.8125 0-45-20.1875-45-45s20.1875-45 45-45h332c24.8125 0 45 20.1875 45 45s-20.1875 45-45 45zm0 0"></path></svg>