<svg xmlns="http://www.w3.org/2000/svg" height="512pt" viewBox="0 0 512 512" width="512pt"><path d="m119.433594 159.601562c44.003906 0 79.800781-35.800781 79.800781-79.800781 0-44.003906-35.800781-79.800781-79.800781-79.800781s-79.800782 35.796875-79.800782 79.800781c0 44 35.796876 79.800781 79.800782 79.800781zm0 0"></path><path d="m255.984375 372.398438c-52.558594 0-95.316406 42.761718-95.316406 95.320312v29.28125c0 8.285156 6.714843 15 15 15h160.664062c8.285157 0 15-6.714844 15-15v-29.265625c0-52.566406-42.765625-95.335937-95.347656-95.335937zm0 0"></path><path d="m130.667969 467.71875c0-49.011719 28.285156-91.535156 69.386719-112.121094-27.585938-18.226562-45.820313-49.503906-45.820313-84.964844 0-24.945312 9.027344-47.816406 23.976563-65.535156-17.363282-9.859375-37.421876-15.5-58.777344-15.5-65.855469.003906-119.433594 53.578125-119.433594 119.433594v187.96875c0 8.285156 6.714844 15 15 15h118.246094c-1.664063-4.695312-2.578125-9.742188-2.578125-15zm0 0"></path><path d="m256 342.398438c39.574219 0 71.765625-32.195313 71.765625-71.765626 0-39.570312-32.191406-71.765624-71.765625-71.765624s-71.765625 32.195312-71.765625 71.765624c0 39.574219 32.191406 71.765626 71.765625 71.765626zm0 0"></path><path d="m392.566406 159.601562c44 0 79.800782-35.800781 79.800782-79.800781 0-44.003906-35.796876-79.800781-79.800782-79.800781s-79.800781 35.796875-79.800781 79.800781c0 44 35.800781 79.800781 79.800781 79.800781zm0 0"></path><path d="m392.566406 189.601562c-21.351562 0-41.414062 5.636719-58.777344 15.496094 14.949219 17.71875 23.976563 40.589844 23.976563 65.535156 0 35.464844-18.234375 66.742188-45.820313 84.964844 41.101563 20.585938 69.386719 63.109375 69.386719 112.121094v29.28125c0 5.257812-.914062 10.304688-2.578125 15h118.246094c8.285156 0 15-6.714844 15-15v-187.96875c0-65.855469-53.578125-119.429688-119.433594-119.429688zm0 0"></path></svg>