<svg xmlns="http://www.w3.org/2000/svg" id="Capa_1" height="512" viewBox="0 0 512 512" width="512"><g><path d="m345.962 165c-13.839 18.525-35.901 30-59.962 30h-60c-24.061 0-46.123-11.475-59.962-30h-111.548l29.91 52.2c7.8 14.1 22.8 22.8 39 22.8h265.2c16.2 0 31.2-8.7 39-22.8l29.91-52.2z"></path><path d="m345.962 437c-13.839 18.525-35.901 30-59.962 30h-60c-24.061 0-46.123-11.475-59.962-30h-111.548l29.91 52.2c7.8 14.1 22.8 22.8 39 22.8h265.2c16.2 0 31.2-8.7 39-22.8l29.91-52.2z"></path><g id="Food_Container_1_"><path d="m497 105h-22.3l-47.1-82.2c-7.8-14.1-22.8-22.8-39-22.8h-265.2c-16.2 0-31.2 8.7-39 22.8l-47.1 82.2h-22.3c-8.4 0-15 6.6-15 15s6.6 15 15 15h168.7c6 17.4 22.8 30 42.3 30h60c19.5 0 36.3-12.6 42.3-30h168.7c8.4 0 15-6.6 15-15s-6.6-15-15-15z"></path><path d="m497 377h-22.3l-47.1-82.2c-7.8-14.1-22.8-22.8-39-22.8h-265.2c-16.2 0-31.2 8.7-39 22.8l-47.1 82.2h-22.3c-8.4 0-15 6.6-15 15s6.6 15 15 15h168.7c6 17.4 22.8 30 42.3 30h60c19.5 0 36.3-12.6 42.3-30h168.7c8.4 0 15-6.6 15-15s-6.6-15-15-15z"></path></g></g></svg>