<svg xmlns="http://www.w3.org/2000/svg" id="Capa_1" height="512" viewBox="0 0 512 512" width="512"><g><path d="m191 408.49v103.51h130v-103.51l-65-39z"></path><path d="m125 512h36v-112c0-5.27 2.76-10.15 7.28-12.86l80-48c4.75-2.85 10.69-2.85 15.44 0l80 48c4.52 2.71 7.28 7.59 7.28 12.86v112h36v-208h-262z"></path><path d="m497 304h-65c-8.28 0-15 6.72-15 15v178c0 8.28 6.72 15 15 15h65c8.28 0 15-6.72 15-15v-178c0-8.28-6.72-15-15-15z"></path><path d="m479 179.272v-19.272c0-8.284-6.716-15-15-15s-15 6.716-15 15v19.611c-18.601 6.442-32 24.126-32 44.889v31.5c0 8.28 6.72 15 15 15h65c8.28 0 15-6.72 15-15v-31.5c0-21.134-13.88-39.083-33-45.228z"></path><path d="m153 256c0 8.28 6.72 15 15 15h176c8.28 0 15-6.72 15-15v-11h-206z"></path><path d="m157.39 210.61c2.82 2.81 6.63 4.39 10.61 4.39h176c3.98 0 7.79-1.58 10.61-4.39l2.49-2.49c16.7-16.71 25.9-38.92 25.9-62.54 0-30.89-16.45-59.95-42.94-75.83-27.84-16.71-52.08-38.15-72.06-63.75l-.18-.24c-2.84-3.63-7.2-5.76-11.82-5.76s-8.98 2.13-11.82 5.76l-.19.24c-19.97 25.6-44.21 47.04-72.05 63.75-26.49 15.88-42.94 44.94-42.94 75.83 0 23.62 9.2 45.83 25.9 62.54z"></path><path d="m80 304h-65c-8.28 0-15 6.72-15 15v178c0 8.28 6.72 15 15 15h65c8.28 0 15-6.72 15-15v-178c0-8.28-6.72-15-15-15z"></path><path d="m63 179.611v-19.611c0-8.284-6.716-15-15-15s-15 6.716-15 15v19.272c-19.12 6.145-33 24.094-33 45.228v31.5c0 8.28 6.72 15 15 15h65c8.28 0 15-6.72 15-15v-31.5c0-20.763-13.399-38.447-32-44.889z"></path></g></svg>