<svg xmlns="http://www.w3.org/2000/svg" id="Layer_1" height="512" viewBox="0 0 53 53" width="512"><g id="_x34_5_1_"><path d="m49.3381348 11.1287203c-.5682106-.076663-1.0802994.309659-1.1624756.8698521l-.663414 4.6203394-1.9468956.9827805-.8873253-7.7091045c-.3386612-2.9554186-2.5141678-5.3669291-5.397747-6.0031586-8.3120747-1.8266402-17.8966733-1.8573931-25.6443596-.0615688-2.8322811.6464391-4.9667635 3.04774-5.2951508 5.972343l-.8980999 7.8055591-1.9549131-.9868507-.663413-4.6203394c-.0811725-.5606937-.5882525-.9515257-1.1624753-.8698521-.5601928.0806713-.9500229.6007795-.8698523 1.1614733l.7395749 5.1499672c.0481024.331707.2545421.619318.5541801.7701397l3.1431308 1.5859394c-.2849817 3.2567482-.2508464 6.5416813.137042 9.788847l1.2006187 9.8718987c.1372929 1.1496353.7529793 2.1270905 1.6213903 2.7785416v3.4504089c0 1.1698647 1.0774822 2.1242104 2.3909674 2.1242104h2.0626421c1.3135471 0 2.3910294-.9543457 2.3910294-2.1242104v-2.6167603h1.862278c.0197926.0011292.0365772.0115242.0566826.0115242h2.1344833v4.340744c0 1.7035027 1.3750534 3.0785561 3.0785561 3.0785561h4.6794033c1.6931667 0 3.0785561-1.3750534 3.0785561-3.0785561v-4.340744h2.1242085c.0201073 0 .0368919-.0103951.0566864-.0115242h1.8724861v2.6167603c0 1.1698647 1.0672722 2.1242104 2.3807564 2.1242104h2.062645c1.3135452 0 2.3910294-.9543457 2.3910294-2.1242104v-3.4504091c.868412-.6514511 1.4840965-1.6289063 1.6213875-2.7785416.9520149-8.4538822 1.5392799-10.9567375 1.5392799-15.567215 0-1.3675365-.0774765-2.7336349-.1937866-4.0966625l3.1369896-1.5828075c.2996407-.1508217.5060806-.4384327.5541801-.7701397l.7395782-5.1499672c.0801695-.5606937-.309662-1.0808019-.8698541-1.1614732zm-34.901825 1.6166925c.1436815-1.5187969 1.4264126-2.6783915 2.9554195-2.6783915h18.2456036c1.529007 0 2.8014679 1.1595945 2.9451485 2.6783915l.8209343 8.3941879h-25.7880411zm15.7314377 15.9468975c0 2.031826-1.6418705 3.6737595-3.6634884 3.6737595-2.031826 0-3.6737614-1.6419334-3.6737614-3.6737595 0-2.0216179 1.6419353-3.6840324 3.6737614-3.6840324 2.0216179 0 3.6634884 1.6624145 3.6634884 3.6840324zm-16.8602161-.6465015c-.5643892 0-1.026185-.4617958-1.026185-1.026186 0-.5746613.4617958-1.026186 1.026185-1.026186h4.0944691c.5643902 0 1.026186.4515247 1.026186 1.026186 0 .5643902-.4617958 1.026186-1.026186 1.026186zm6.1327476 12.7465191c1.0662708-2.8659172 3.8194466-4.9064484 7.0639801-4.9064484 3.2362671 0 5.9879398 2.0405312 7.053896 4.9064484zm15.1297817-13.7727051c0-.5746613.4617958-1.026186 1.0261841-1.026186h4.094532c.5643921 0 1.0261879.4515247 1.0261879 1.026186 0 .5643902-.4617958 1.026186-1.0261879 1.026186h-4.094532c-.5643883 0-1.0261841-.4617958-1.0261841-1.026186z"></path></g></svg>