<svg xmlns="http://www.w3.org/2000/svg" id="Capa_1" height="512" viewBox="0 0 512 512" width="512"><g><path d="m30 381h30v-89h29v-15c0-35.29 28.71-64 64-64 52.46.006 78.299 59.631 52.949 102.35.001 0-37.769 65.65-37.769 65.65h205.82v-186.25h34.5v52.5c0 24.81 20.19 45 45 45s45-20.19 45-45v-135c0-24.81-20.19-45-45-45s-45 20.19-45 45v52.5h-34.5v-71.75h-41v-61h-30v61h-18.32l-35 22h-150.68c-5.51 0-10-4.49-10-10v-15h-29v-30h-30v30h-30v202h30zm279-30h-30v-30h30z"></path><path d="m0 411h512v69h-512z"></path></g></svg>