<svg xmlns="http://www.w3.org/2000/svg" viewBox="0 0 64 64" width="512" height="512"><g id="Glyph"><path d="M42.3,30H36a1,1,0,0,1-.914-.594L32,22.462l-3.086,6.944A1,1,0,0,1,28,30H21.7l4.948,4.241a1,1,0,0,1,.314,1.022l-2.211,8.106,6.632-5.159a1,1,0,0,1,1.228,0l6.632,5.159-2.211-8.106a1,1,0,0,1,.314-1.022Z"></path><path d="M4,12V24H29.128l1.958-4.406a1,1,0,0,1,1.828,0L34.872,24H60V12Z"></path><path d="M24.869,35.348l-6.52-5.589A1,1,0,0,1,19,28h8.35l.889-2H4V38H24.145Z"></path><path d="M36.65,28H45a1,1,0,0,1,.651,1.759l-6.52,5.589L39.855,38H60V26H35.761Z"></path><path d="M41.965,45.737a1,1,0,0,1-1.579,1.053L32,40.267,23.614,46.79a1,1,0,0,1-1.579-1.053L23.6,40H4V52H60V40H40.4Z"></path></g></svg>