<svg xmlns="http://www.w3.org/2000/svg" height="512" viewBox="0 0 48 48" width="512"><g id="Line"><path d="m6.314 20.107c-.12.307-.486 1.389-.553 1.621l6.239 4.991 4.375-3.5c.365-.292.884-.292 1.249 0l4.375 3.5 4.375-3.5c.365-.292.885-.292 1.25 0l4.375 3.5 4.375-3.5c.365-.292.885-.292 1.25 0l5.375 4.3s-.141-2.703-.165-2.893l-5.815-4.362-4.395 3.516c-.365.292-.885.292-1.25 0l-4.374-3.499-4.375 3.5c-.365.292-.884.292-1.249 0l-4.376-3.5-4.375 3.5c-.355.285-.859.293-1.225.019l-5.049-3.786c-.012.031-.025.062-.037.093z"></path><path d="m5 30.295c.634-.19 37.366-.19 38 0l-6-5.014-4.375 3.5c-.365.292-.885.292-1.25 0l-4.375-3.5-4.375 3.5c-.365.292-.884.292-1.249 0l-4.376-3.5-4.375 3.5c-.365.292-.884.292-1.249 0l-6.1-4.88c-.037.236-.276 6.394-.276 6.394z"></path><path d="m7.222 18.167 4.759 3.569 4.395-3.516c.365-.292.884-.292 1.249 0l4.375 3.5 4.375-3.5c.365-.292.885-.292 1.25 0l4.375 3.5 4.375-3.5c.356-.284.86-.293 1.225-.019l4.621 3.466c-.101-1.223-4.686-13.667-18.221-13.667-11.225 0-16.306 9.275-16.778 10.167z"></path><path d="m28.961 6.617c-.199-2.576-2.335-4.617-4.961-4.617s-4.762 2.041-4.961 4.617c1.594-.389 3.249-.617 4.961-.617s3.367.228 4.961.617z"></path><path d="m40.923 46h-33.846c-2.804 0-5.077-2.273-5.077-5.077v-3.845c0-2.805 2.273-5.078 5.077-5.078h33.845c2.805 0 5.078 2.273 5.078 5.077v3.845c0 2.805-2.273 5.078-5.077 5.078z"></path></g></svg>