<svg xmlns="http://www.w3.org/2000/svg" xmlns:xlink="http://www.w3.org/1999/xlink" id="Layer_1" x="0px" y="0px" viewBox="0 0 512 512" style="enable-background:new 0 0 512 512;" xml:space="preserve"><g>	<path d="M0,51.8v408.3h512V51.8H0z M259.3,405.4c-78.9,0-142.9-64-142.9-142.9c0-51.5,27.3-96.7,68.2-121.8  c-6.7,16.6-10.4,34.7-10.4,53.6c0,78.9,64,142.9,142.9,142.9c27.4,0,53-7.7,74.7-21.1C370.6,368.5,319.3,405.4,259.3,405.4z   M345.5,199.1L323,244.5l-22.4-45.4l-50.1-7.3l36.2-35.3l-8.6-49.9l44.8,23.6l44.8-23.6l-8.6,49.9l36.2,35.3L345.5,199.1z"></path></g></svg>