<svg xmlns="http://www.w3.org/2000/svg" id="Solid" height="512" viewBox="0 0 128 128" width="512"><path d="m124.49 24.51-43.225-23a2.991 2.991 0 0 0 -1.967-.3c-.874.165-2.212.412-3.661.659a82.7 82.7 0 0 1 -11.637 1.341c-3.963 0-10.929-1.192-14.353-1.825-.342-.064-.666-.124-.948-.178a2.988 2.988 0 0 0 -1.966.3l-43.253 23.013a4.5 4.5 0 0 0 -2.26 4.35l9.438 96.653a1.5 1.5 0 0 0 1.49 1.355 1.466 1.466 0 0 0 .148-.007 1.5 1.5 0 0 0 1.347-1.639l-.823-8.432 7.138-3.6.713 7.3a1.5 1.5 0 0 0 1.491 1.354c.048 0 .1 0 .148-.006a1.5 1.5 0 0 0 1.346-1.639l-.826-8.457 6.543-3.3.714 7.317a1.5 1.5 0 0 0 1.491 1.355 1.48 1.48 0 0 0 .148-.007 1.5 1.5 0 0 0 1.347-1.639l-.828-8.473 6.543-3.3.716 7.334a1.5 1.5 0 0 0 1.496 1.361 1.48 1.48 0 0 0 .148-.007 1.5 1.5 0 0 0 1.347-1.638l-.83-8.49 6.543-3.3.718 7.351a1.5 1.5 0 0 0 1.491 1.355c.048 0 .1 0 .148-.007a1.5 1.5 0 0 0 1.346-1.639l-.831-8.507 6.554-3.3.875 7.565a1.5 1.5 0 0 0 1.488 1.328 1.479 1.479 0 0 0 .175-.01 1.5 1.5 0 0 0 1.317-1.662l-12.399-97.109c.848.159 1.919.352 3.1.552l9.21 71.188a1.008 1.008 0 0 0 .943.88q1.655.079 3.308 0a1.008 1.008 0 0 0 .943-.88l9.216-71.189c1.182-.2 2.252-.392 3.1-.551l-12.394 97.114a1.5 1.5 0 0 0 1.317 1.662 1.479 1.479 0 0 0 .175.01 1.5 1.5 0 0 0 1.488-1.328l.875-7.565 6.554 3.3-.831 8.507a1.5 1.5 0 0 0 1.346 1.639c.05 0 .1.007.148.007a1.5 1.5 0 0 0 1.491-1.355l.718-7.351 6.543 3.3-.83 8.49a1.5 1.5 0 0 0 1.347 1.638 1.48 1.48 0 0 0 .148.007 1.5 1.5 0 0 0 1.495-1.355l.716-7.334 6.543 3.3-.828 8.473a1.5 1.5 0 0 0 1.347 1.639 1.48 1.48 0 0 0 .148.007 1.5 1.5 0 0 0 1.491-1.355l.714-7.317 6.543 3.3-.826 8.457a1.5 1.5 0 0 0 1.346 1.639c.05 0 .1.006.148.006a1.5 1.5 0 0 0 1.491-1.354l.713-7.3 7.138 3.6-.823 8.432a1.5 1.5 0 0 0 1.347 1.639 1.466 1.466 0 0 0 .148.007 1.5 1.5 0 0 0 1.49-1.355l9.434-96.674a4.488 4.488 0 0 0 -2.29-4.35zm-69.4 49.726 2.169 16.8-44.749 22.564-1.6-16.324zm60.4 39.364-44.75-22.56 2.171-16.816 44.194 22.85z"></path></svg>