<svg xmlns="http://www.w3.org/2000/svg" id="SOLID" height="512" viewBox="0 0 64 64" width="512"><path d="m10.354 44.703c1.214.359 3.972 1.255 7.142 2.78.316-.755.779-1.464 1.393-2.078l12.172-12.172c.279-.279.439-.666.439-1.061v-13.672h-1.5c-1.379 0-2.5-1.121-2.5-2.5v-.853l-11.948 2.525 2.818 13.375c.138.65.015 1.32-.35 1.884z"></path><path d="m14.161 5.401h4v10.999h-4z" transform="matrix(.978 -.207 .207 .978 -1.904 3.576)"></path><path d="m10.623 6.449c-.806.172-1.328.971-1.163 1.781l1.659 7.826c.173.808.969 1.328 1.777 1.154l1.466-.31-2.273-10.76z"></path><path d="m30.485 62.5c1.498 0 2.88-.572 3.919-1.611l1.992-1.992c-3.639-7.759-13.417-13.275-15.303-14.283l-1.498 1.498c-2.145 2.145-2.145 5.633 0 7.777l7 7c1.04 1.039 2.422 1.611 3.89 1.611z"></path><path d="m32.5 32.172c0 .668-.26 1.295-.732 1.768l-9.933 9.933c2.459 1.327 11.546 6.625 15.313 14.273l7.261-7.261c-5.291-11.987 5.203-18.193 7.092-19.191v-13.194h-19v13.672z"></path><path d="m19.053 4.367h3.999v10.998h-3.999z" transform="matrix(.978 -.207 .207 .978 -1.585 4.566)"></path><path d="m10.232 54.961 8.301 5.41c1.209.791 2.713 1.074 4.132.77.708-.151 1.365-.432 1.948-.821l-5.724-5.724c-1.666-1.666-2.229-4.017-1.705-6.154-3.412-1.652-6.421-2.582-7.4-2.864l-1.155 1.774c-.802 1.232-1.076 2.703-.771 4.142.303 1.438 1.146 2.668 2.374 3.467z"></path><path d="m45.17 50.122.683-.683c.28-.279.667-.439 1.061-.439h1.086c4.136 0 7.5-3.364 7.5-7.5v-1.843c0-.936-.364-1.814-1.025-2.476l-1.656-1.656c-.741-.74-1.17-1.698-1.274-2.727-2.493 1.387-10.731 6.913-6.375 17.324z"></path><path d="m34.104 1.489-1.47.311.782 3.7h3.068l-.602-2.856c-.174-.809-.97-1.327-1.778-1.155z"></path><path d="m54 6.5h-1.5v11h1.5c.827 0 1.5-.673 1.5-1.5v-8c0-.827-.673-1.5-1.5-1.5z"></path><path d="m31.655 2.007-3.912.826.686 3.239c.43-.352.973-.572 1.571-.572h2.393z"></path><path d="m32.5 6.5h4v11h-4z"></path><path d="m28.5 8v8c0 .827.673 1.5 1.5 1.5h1.5v-11h-1.5c-.827 0-1.5.673-1.5 1.5z"></path><path d="m27.5 8c0-.283.057-.55.144-.803l-.88-4.157-3.913.826 2.273 10.76 2.375-.502v-6.124z"></path><path d="m37.5 6.5h4v11h-4z"></path><path d="m47.5 6.5h4v11h-4z"></path><path d="m42.5 6.5h4v11h-4z"></path></svg>