<svg xmlns="http://www.w3.org/2000/svg" id="Layer_1" height="512" viewBox="0 0 511.906 511.906" width="512"><g><path d="m206.042 305.864h-50.117l-155.925 116.263v28.49h27.974l178.068-132.774z"></path><path d="m206.042 206.042v-11.979l-178.068-132.774h-27.974v28.489l155.925 116.264z"></path><path d="m511.906 275.864v-39.822h-236.042v-174.753h-39.822v174.753h-236.042v39.822h236.042v174.753h39.822v-174.753z"></path><path d="m511.906 384.706v-78.842h-105.738z"></path><path d="m0 305.864v78.842l105.738-78.842z"></path><path d="m0 127.2v78.842h105.738z"></path><path d="m206.042 61.289h-127.881l127.881 95.353z"></path><path d="m78.161 450.617h127.881v-95.353z"></path><path d="m305.864 450.617h127.881l-127.881-95.353z"></path><path d="m305.864 206.042h50.117l155.925-116.264v-28.489h-27.974l-178.068 132.774z"></path><path d="m305.864 305.864v11.979l178.068 132.774h27.974v-28.49l-155.924-116.263z"></path><path d="m511.906 206.042v-78.842l-105.738 78.842z"></path><path d="m433.745 61.289h-127.881v95.353z"></path></g></svg>